Coordinates
version=1
nRows=29
nColumns=24
inDegrees=yes

Units are S.I. units (second, meters, Newtons, ...)
Angles are in degrees.

endheader
time	pelvis_tilt	pelvis_list	pelvis_rotation	pelvis_tx	pelvis_ty	pelvis_tz	hip_flexion_r	hip_adduction_r	hip_rotation_r	knee_angle_r	ankle_angle_r	subtalar_angle_r	mtp_angle_r	hip_flexion_l	hip_adduction_l	hip_rotation_l	knee_angle_l	ankle_angle_l	subtalar_angle_l	mtp_angle_l	lumbar_extension	lumbar_bending	lumbar_rotation
      4.22000000	      3.42633260	      2.83156765	      2.86089863	     -0.32328406	      0.78478778	     -0.13203989	     22.53357967	      1.84847069	      4.70658974	     -6.69081703	      5.59899884	     -2.44900058	      0.00000000	    -28.08718998	      5.95782810	      5.00066491	     -4.16933249	     14.73840900	      0.04607613	      0.00000000	    -29.94122584	     -2.25208022	     -5.73960428
      4.23000000	      3.44992134	      2.40874297	      2.50904483	     -0.30848785	      0.78362674	     -0.13161863	     23.07809017	      2.73743708	      5.13613363	     -9.41001735	      4.38844196	     -4.50616829	      0.00000000	    -28.29157959	      5.61126125	      4.40775162	     -5.70434333	     13.81015427	      0.58793897	      0.00000000	    -29.64583904	     -1.89462012	     -4.95579503
      4.24000000	      3.48037264	      1.95574971	      2.23247780	     -0.29347680	      0.78272403	     -0.13135184	     23.58351186	      3.61429648	      5.45790310	    -12.24826428	      3.10806768	     -6.26203924	      0.00000000	    -28.33199793	      5.22410718	      3.83326659	     -7.52691987	     12.68881181	      1.11394947	      0.00000000	    -29.32706441	     -1.43354609	     -4.27195232
      4.25000000	      3.51303879	      1.46042187	      1.94970242	     -0.27819620	      0.78208995	     -0.13117451	     24.03265046	      4.51580363	      5.78241230	    -15.10765168	      1.96689567	     -7.57134935	      0.00000000	    -28.25854462	      4.82469279	      3.43302247	     -9.51633303	     11.11467122	      1.34909234	      0.00000000	    -28.94531163	     -0.90852199	     -3.59985591
      4.26000000	      3.59942017	      1.06584788	      1.63637867	     -0.26299938	      0.78174968	     -0.13094818	     24.35921970	      5.34213115	      6.38449217	    -17.90874728	      1.09639790	     -8.66191209	      0.00000000	    -27.99141518	      4.55218350	      3.02750546	    -11.88252991	      9.26548747	      1.51297911	      0.00000000	    -28.66762503	     -0.49390737	     -2.98116450
      4.27000000	      3.71943806	      0.64973650	      1.38455549	     -0.24775461	      0.78169677	     -0.13086335	     24.55818807	      6.14735259	      6.89009778	    -20.60196672	      0.83951318	     -9.19731087	      0.00000000	    -27.53075817	      4.24839196	      2.66920389	    -14.56818705	      7.16504591	      1.57650230	      0.00000000	    -28.41808926	     -0.01325036	     -2.40217034
      4.28000000	      3.82815223	      0.27149908	      1.13067792	     -0.23259865	      0.78186472	     -0.13078516	     24.65728957	      6.90070554	      7.37121287	    -23.13175269	      1.20017013	     -9.31053863	      0.00000000	    -26.80044962	      3.98602692	      2.28585054	    -17.58266926	      4.80825881	      1.57768961	      0.00000000	    -28.16594500	      0.42831175	     -1.84823896
      4.29000000	      3.92264035	     -0.05864794	      0.94870976	     -0.21765126	      0.78229538	     -0.13082807	     24.62852898	      7.53382531	      7.65333766	    -25.41294637	      2.11410490	     -9.06803904	      0.00000000	    -25.77087953	      3.73115048	      1.89435085	    -20.91975112	      2.25959669	      1.55216317	      0.00000000	    -27.93865028	      0.84693024	     -1.40039903
      4.30000000	      4.07105967	     -0.45356877	      0.89956615	     -0.20278805	      0.78301986	     -0.13093471	     24.31435969	      8.15156221	      7.75376622	    -27.29096845	      3.45054083	     -8.78181382	      0.00000000	    -24.54284059	      3.31324473	      1.37174041	    -24.50407747	     -0.33888605	      1.44209276	      0.00000000	    -27.75167853	      1.36864060	     -1.06759864
      4.31000000	      4.07451798	     -0.68332593	      0.88005897	     -0.18844573	      0.78384637	     -0.13102601	     24.02645367	      8.51663847	      7.58673708	    -28.88196663	      5.09772466	     -8.24788568	      0.00000000	    -22.87996960	      3.00575303	      0.85419356	    -28.30639337	     -2.93222303	      1.26060383	      0.00000000	    -27.49184905	      1.67390436	     -0.74950920
      4.32000000	      4.09792428	     -1.03278895	      0.99373814	     -0.17433227	      0.78493285	     -0.13112565	     23.47879647	      8.91144227	      7.22952550	    -29.98827081	      6.79612189	     -7.77537905	      0.00000000	    -21.03756392	      2.45513971	      0.22498921	    -32.20751449	     -5.22165071	      0.89252980	      0.00000000	    -27.26568137	      2.13544296	     -0.56001072
      4.33000000	      4.19036857	     -1.51081895	      1.17645274	     -0.16044046	      0.78634089	     -0.13113150	     22.63432290	      9.38268028	      6.75226482	    -30.62457658	      8.38299182	     -7.34954649	      0.00000000	    -19.14082250	      1.67337137	     -0.47315031	    -36.07263836	     -7.06508852	      0.32244132	      0.00000000	    -27.13233199	      2.72547084	     -0.35368732
      4.34000000	      4.09715470	     -1.79360673	      1.50963840	     -0.14709442	      0.78769099	     -0.13121200	     21.89731866	      9.54161206	      5.98170055	    -31.00755365	     10.13650130	     -6.74215860	      0.00000000	    -16.88628288	      1.01918541	     -0.93694991	    -39.91779155	     -8.22748946	     -0.65404143	      0.00000000	    -26.84116058	      3.08206202	     -0.37410828
      4.35000000	      4.06176275	     -2.17319371	      1.84722809	     -0.13388953	      0.78931095	     -0.13112962	     20.92146025	      9.80510819	      5.24948231	    -31.01410545	     11.62765229	     -6.21313517	      0.00000000	    -14.66947369	      0.22444817	     -1.40929152	    -43.54391882	     -8.64774586	     -1.90895766	      0.00000000	    -26.60548685	      3.50699074	     -0.32773119
      4.36000000	      4.03992755	     -2.48707184	      2.21606202	     -0.12093530	      0.79112103	     -0.13098890	     19.82020224	      9.99713497	      4.53407536	    -30.77198107	     12.96562279	     -5.67847648	      0.00000000	    -12.44995587	     -0.50874543	     -1.75269916	    -46.90467940	     -8.32818761	     -3.50195856	      0.00000000	    -26.40037879	      3.82790795	     -0.33375882
      4.37000000	      4.05531028	     -2.72108982	      2.56296891	     -0.10816828	      0.79314405	     -0.13074235	     18.58066040	     10.14013137	      3.94269516	    -30.32522102	     14.09782908	     -5.20491454	      0.00000000	    -10.29599622	     -1.13692372	     -2.01327766	    -49.91257307	     -7.36850441	     -5.41900234	      0.00000000	    -26.24398635	      4.01447936	     -0.32383170
      4.38000000	      4.13482400	     -2.85736582	      2.84699288	     -0.09550105	      0.79541778	     -0.13040283	     17.17291765	     10.23669303	      3.57405024	    -29.70048809	     15.01883570	     -4.82105089	      0.00000000	     -8.27986313	     -1.61401980	     -2.21204891	    -52.48642745	     -5.95037150	     -7.58198003	      0.00000000	    -26.15436083	      4.04906567	     -0.23300296
      4.39000000	      4.17801134	     -2.80647780	      3.10026142	     -0.08312949	      0.79782046	     -0.12995038	     15.76919097	     10.16287003	      3.27465870	    -28.98822252	     15.77644971	     -4.50100273	      0.00000000	     -6.24100544	     -1.87113337	     -2.37756500	    -54.66518857	     -4.38943583	     -9.91440580	      0.00000000	    -26.08189727	      3.82101184	     -0.31481133
      4.40000000	      4.29992131	     -2.70172216	      3.21680264	     -0.07077268	      0.80043859	     -0.12932238	     14.18136148	     10.10523930	      3.29312705	    -28.11507703	     16.35282216	     -4.28304168	      0.00000000	     -4.38960236	     -2.02785862	     -2.58442612	    -56.37786099	     -2.68936283	    -12.10994443	      0.00000000	    -26.09295481	      3.48053911	     -0.21699736
      4.41000000	      4.36226054	     -2.37505932	      3.29534818	     -0.05870446	      0.80317856	     -0.12876869	     12.63681248	      9.79654736	      3.32026392	    -27.18750850	     16.77302801	     -4.06323454	      0.00000000	     -2.53482694	     -1.86907559	     -2.71852675	    -57.62880211	     -1.21205881	    -14.38416767	      0.00000000	    -26.09792009	      2.88179625	     -0.22217154
      4.42000000	      4.42999463	     -1.98365929	      3.24522263	     -0.04675807	      0.80595586	     -0.12803817	     11.03121619	      9.44448532	      3.50940615	    -26.15043084	     17.14298056	     -3.83217793	      0.00000000	     -0.75852302	     -1.62898968	     -2.95064760	    -58.49536860	      0.19240150	    -16.21946041	      0.00000000	    -26.14427011	      2.15474197	     -0.19256525
      4.43000000	      4.48161605	     -1.49792421	      3.09691355	     -0.03497127	      0.80876365	     -0.12728531	      9.41928611	      8.96770714	      3.66296351	    -25.03683362	     17.41719371	     -3.52645959	      0.00000000	      0.94435655	     -1.24887406	     -3.22429304	    -58.95389172	      1.52115734	    -17.62976551	      0.00000000	    -26.20579618	      1.29682118	     -0.07506150
      4.44000000	      4.51140157	     -0.98197298	      2.88438601	     -0.02333921	      0.81148998	     -0.12648675	      7.81487825	      8.43380232	      3.78680428	    -23.84993157	     17.65314465	     -3.12461590	      0.00000000	      2.60682851	     -0.83370080	     -3.56560759	    -59.07342918	      2.78864517	    -18.56700849	      0.00000000	    -26.27589625	      0.39165802	      0.05164256
      4.45000000	      4.48736907	     -0.43354856	      2.64561601	     -0.01188848	      0.81404184	     -0.12568500	      6.26263144	      7.83823167	      3.85984517	    -22.59625981	     17.86613005	     -2.68460648	      0.00000000	      4.26900855	     -0.36848536	     -3.91296319	    -58.87650996	      4.00985037	    -19.04948636	      0.00000000	    -26.33488277	     -0.55656041	      0.14601320
      4.46000000	      4.46257965	      0.12507966	      2.25733073	     -0.00052482	      0.81645064	     -0.12484654	      4.73065790	      7.18914538	      3.86379779	    -21.34564540	     18.12483976	     -1.93729174	      0.00000000	      5.81911733	      0.11153805	     -4.40765763	    -58.31195983	      5.22707048	    -19.14387661	      0.00000000	    -26.40099510	     -1.54130111	      0.37267845
      4.47000000	      4.33480315	      0.69367040	      1.97240446	      0.01063000	      0.81852923	     -0.12408645	      3.31904577	      6.52023385	      3.80345992	    -20.03799891	     18.25309823	     -1.41124858	      0.00000000	      7.44220914	      0.63845865	     -4.74625761	    -57.46757753	      6.32818340	    -19.02585067	      0.00000000	    -26.41076241	     -2.51774076	      0.48593026
      4.48000000	      4.26513853	      1.17610518	      1.47778011	      0.02170544	      0.82034122	     -0.12323519	      1.90096533	      5.90782451	      3.72685278	    -18.80781302	     18.55296084	     -0.48155465	      0.00000000	      8.88723292	      1.04352953	     -5.29945527	    -56.30225390	      7.50715480	    -18.64773747	      0.00000000	    -26.49227121	     -3.41574752	      0.79467829
      4.49000000	      4.12524463	      1.61156150	      1.05613088	      0.03266199	      0.82177998	     -0.12246124	      0.56361807	      5.34645810	      3.65770632	    -17.53506862	     18.72224001	      0.22900452	      0.00000000	     10.34611416	      1.43305581	     -5.71076227	    -54.85389732	      8.42592222	    -18.35479344	      0.00000000	    -26.52349302	     -4.24299147	      1.01735125
      4.50000000	      3.95974401	      1.95669471	      0.62077712	      0.04354395	      0.82283093	     -0.12171713	     -0.72819402	      4.87683269	      3.61767680	    -16.26641543	     18.86521492	      0.89326360	      0.00000000	     11.74801037	      1.74512060	     -6.06026818	    -53.12651986	      9.11295175	    -18.19278060	      0.00000000	    -26.53860487	     -4.94867762	      1.29432009
